<svg id="_2.1_slide" data-name="2.1_slide" xmlns="http://www.w3.org/2000/svg" viewBox="0 0 337.44 345.62"><defs><style>.cls-1{fill:#fff;}.cls-2{fill:#ffce21;}.cls-3{fill:#964b96;}.cls-4{fill:#c9d410;}.cls-5{fill:#60c2da;}.cls-6{fill:#ea602b;}</style></defs><title>fe_logo</title><path class="cls-1" d="M189.21,1260c1.15,3.11,8.9,11.07,13.43,12.7s13,3.29,14.78,2.84,5.28-7.09,5.28-7.09l-0.15-69.09a108.79,108.79,0,0,1,11.46-.91c4.68,0,17.5.3,20.82,0s8.42-.3,11.08-3.17,7.63-13,7.48-17.65-3-11.46-6.64-11.61-39.67,0-39.67,0l1.21-40.58h48.57s11.48-2.56,14.49-6.79,6.48-13.73,4.37-18.86-9.8-16.44-9.8-16.44h-64s-20.67,9.5-24.44,13.73-10.41,9.8-11,17,0,67.58,0,67.58l0.45,65.16S187.7,1255.94,189.21,1260Z" transform="translate(-138 -1039.94)"/><path class="cls-1" d="M332.29,1096.42l19.56-13h53.43l8.47,13-5.88,17.2s-4.07,6.79-8.15,8.82-36.88,3.17-39.37,3.39-9.28,1.58-9.73,4.75,8.82,35.07,8.82,35.07h31.68s9.08,13.12,6.24,17.2-8.56,12.44-10.11,13.58-17.52,1.81-17.52,1.81l-10.28,1.13s-0.68,28.06.45,29.87,7.92,3.85,11.54,3.85h30.09s15.16,13.35,14,18.78-10,14.93-12.9,18.1-12.44,5.2-17.2,5-44.12.94-46.16,0-11.09-5.21-13.8-8.5a37.26,37.26,0,0,1-8.6-25.82c0.45-14.12,1.58-125.22,1.58-125.22A35.33,35.33,0,0,1,332.29,1096.42Z" transform="translate(-138 -1039.94)"/><path class="cls-2" d="M458.16,1117.15H446.92a17.27,17.27,0,0,1-17.27-17.27v-1.59A17.27,17.27,0,0,1,446.92,1081h11.24a17.27,17.27,0,0,1,17.27,17.27v1.59A17.27,17.27,0,0,1,458.16,1117.15Zm-191-36.14H162a17.27,17.27,0,0,0-17.27,17.27v1.59A17.27,17.27,0,0,0,162,1117.15h12.13v120.67a28.79,28.79,0,0,0,28.79,28.79h7.34v-76.77h37.12a13,13,0,0,0,13-13h0a13,13,0,0,0-13-13H210.26v-41a5.76,5.76,0,0,1,5.76-5.76h51.16a18.06,18.06,0,0,0,18.06-18.06h0A18.06,18.06,0,0,0,267.18,1081Zm33.21,95.85h0a13,13,0,0,0-13-13h-8.52a13,13,0,0,0-13,13h0a13,13,0,0,0,13,13h8.52A13,13,0,0,0,300.39,1176.86Zm-136.42,0h0a13,13,0,0,0-13-13h0a13,13,0,0,0-13,13h0a13,13,0,0,0,13,13h0A13,13,0,0,0,164,1176.86Zm256.92-13h-79.2v-41a5.76,5.76,0,0,1,5.76-5.76h33.67a18.06,18.06,0,0,0,0-36.13H334.35a28.79,28.79,0,0,0-28.79,28.79v128a28.79,28.79,0,0,0,28.79,28.79h46.76a18.06,18.06,0,0,0,0-36.13H347.45a5.76,5.76,0,0,1-5.76-5.76v-34.95l79.2,0.07A13,13,0,0,0,420.89,1163.87Zm-143.48,66.61a18,18,0,1,0,18,18A18,18,0,0,0,277.41,1230.48Z" transform="translate(-138 -1039.94)"/><path d="M305.56,1099.08A18.06,18.06,0,0,0,287.5,1081H223.23a28.69,28.69,0,0,0-20.56,8.65h0l-9.7,9.69h0a28.7,28.7,0,0,0-8.7,20.61v128a28.79,28.79,0,0,0,28.79,28.79h7.34l10.16-10.16V1200h27a12.94,12.94,0,0,0,9.46-4.09h0l9.7-9.71,0.43-.43,0.11-.11v0a12.92,12.92,0,0,0,3.43-8.78h0a13,13,0,0,0-13-13H230.57V1127.3h46.77a18,18,0,0,0,12.34-4.87h0l0.06-.06q0.38-.36.74-0.74l10.2-10.2h0A18,18,0,0,0,305.56,1099.08Zm-22.13-14-6.09,6.09H217.09l6.14-6.09h60.2Zm-52.86,82.86h31.78l-6.09,6.09H220.42l6.09-6.09h4.06Zm46.77-44.7H226.17a9.83,9.83,0,0,0-9.82,9.82v45h41.18a8.92,8.92,0,0,1,0,17.85H216.35v76.77h-3.28A24.76,24.76,0,0,1,188.35,1248V1120a24.76,24.76,0,0,1,24.73-24.73h64.26A14,14,0,1,1,277.34,1123.24Z" transform="translate(-138 -1039.94)"/><path d="M401.43,1230.48H367.76a5.73,5.73,0,0,1-3.77-1.41l-1.64-2.38a5.73,5.73,0,0,1-.35-2v-24.79h19.15a12.9,12.9,0,0,0,8.42-3.11h0l0,0a13,13,0,0,0,1.34-1.33l9.6-9.55h0a12.95,12.95,0,0,0-9.22-22H362V1127.3h29.27a18,18,0,0,0,11.84-4.43h0l0,0a18.14,18.14,0,0,0,1.66-1.65l9.38-9.33v0A18,18,0,0,0,401.43,1081H354.66a28.66,28.66,0,0,0-18.75,7h0a29,29,0,0,0-2.86,2.83l-8.67,8.58-0.35.34-0.11.11h0a28.69,28.69,0,0,0-8.2,20.12v128a28.79,28.79,0,0,0,28.79,28.79h46.76a18,18,0,0,0,12.28-4.82h0l0.06-.06q0.46-.43.89-0.89l9-9.07q0.66-.6,1.27-1.27l0.08-.08h0A18,18,0,0,0,401.43,1230.48Zm-4.08,4.06-6.08,6.09H361.7l6.06-6.09h29.59Zm-10.11-66.61-6.09,6.09h-29.3l6.09-6.09h29.3Zm10.1-82.86-6.07,6.09H348.56l6.1-6.09h42.68Zm-6.07,187.63H344.51A24.76,24.76,0,0,1,319.78,1248V1120a24.76,24.76,0,0,1,24.73-24.73h46.76a14,14,0,0,1,0,28H357.6a9.83,9.83,0,0,0-9.82,9.82v45h33.37a8.89,8.89,0,0,1,0,17.78H347.78v39a9.83,9.83,0,0,0,9.82,9.82h33.67A14,14,0,0,1,391.27,1272.71Z" transform="translate(-138 -1039.94)"/><rect x="3.36" width="313.73" height="14.49"/><rect x="314.19" y="14.49" width="2.91" height="158.7"/><polygon points="303.13 188.11 315.64 207.05 328.15 188.11 315.64 169.18 303.13 188.11"/><path d="M310.6,1325a1.19,1.19,0,0,1-1.56.52h0a6.8,6.8,0,0,0-3.06-.72c-1.83,0-2.81.72-2.81,2.21,0,1.65.93,2.21,3.35,3,2.65,0.85,5.1,2,5.1,5.92,0,3.6-2.5,5-6.13,5a11.46,11.46,0,0,1-6.33-1.88l0.72-1.3a1.19,1.19,0,0,1,1.55-.5l0.31,0.15a8.71,8.71,0,0,0,3.76.93c1.57,0,2.57-.77,2.57-2.37s-0.57-2.21-2.94-2.94l-1-.33c-2-.64-4.35-1.85-4.35-5.69,0-3.3,2.88-4.82,6.21-4.82a10.24,10.24,0,0,1,5.36,1.47Z" transform="translate(-138 -1039.94)"/><path d="M323.41,1337.49v-10.63h3.32v13.83h-1.1a1.73,1.73,0,0,1-1.68-1.34h0a5.79,5.79,0,0,1-4.12,1.62c-3,0-4.79-1.21-4.79-3.81v-10.3h3.32v9.94a1.69,1.69,0,0,0,1.78,1.88A5.24,5.24,0,0,0,323.41,1337.49Z" transform="translate(-138 -1039.94)"/><path d="M342.1,1330.12v10.56h-1.51a1.81,1.81,0,0,1-1.81-1.81v-8.13a1.81,1.81,0,0,0-1.7-2,3.45,3.45,0,0,0-2.76,1.42v10.53H331v-13.83h1a1.81,1.81,0,0,1,1.75,1.34h0a5.45,5.45,0,0,1,4.12-1.65,3.78,3.78,0,0,1,3.45,1.65,5.75,5.75,0,0,1,4.38-1.65c1.83,0,4.17.72,4.17,3.84v10.3h-1.51a1.81,1.81,0,0,1-1.81-1.81v-8.13a1.83,1.83,0,0,0-1.73-2A3.54,3.54,0,0,0,342.1,1330.12Z" transform="translate(-138 -1039.94)"/><path d="M365.24,1330.12v10.56h-1.51a1.81,1.81,0,0,1-1.81-1.81v-8.13a1.81,1.81,0,0,0-1.7-2,3.45,3.45,0,0,0-2.76,1.42v10.53h-3.32v-13.83h1a1.81,1.81,0,0,1,1.75,1.34h0a5.45,5.45,0,0,1,4.12-1.65,3.78,3.78,0,0,1,3.45,1.65,5.75,5.75,0,0,1,4.38-1.65c1.83,0,4.17.72,4.17,3.84v10.3h-1.51a1.81,1.81,0,0,1-1.81-1.81v-8.13a1.83,1.83,0,0,0-1.73-2A3.54,3.54,0,0,0,365.24,1330.12Z" transform="translate(-138 -1039.94)"/><path d="M388.21,1334.32h-8.42v0.57c0.13,2.42,1.06,3.68,3,3.68a12.52,12.52,0,0,0,2.77-.34,1.81,1.81,0,0,1,2.17,1.34l0.1,0.44a12.64,12.64,0,0,1-5.07,1c-4.58,0-6.54-2.63-6.54-7.08,0-4.25,1.83-7.31,6.46-7.31C387.15,1326.57,388.21,1329.07,388.21,1334.32Zm-8.39-2H385c0-2-.46-3.55-2.34-3.55C380.49,1328.79,379.82,1330.61,379.82,1332.34Z" transform="translate(-138 -1039.94)"/><path d="M391.51,1326.85h1a1.81,1.81,0,0,1,1.76,1.38l0.08,0.32a4.44,4.44,0,0,1,3.37-2,5.2,5.2,0,0,1,2.21.41l-0.52,2.06h-1.85a3.87,3.87,0,0,0-2.76,1.8v9.84h-3.32v-13.83Z" transform="translate(-138 -1039.94)"/><path d="M310.6,1353.86a1.19,1.19,0,0,1-1.56.52h0a6.8,6.8,0,0,0-3.06-.72c-1.83,0-2.81.72-2.81,2.21,0,1.65.93,2.21,3.35,3,2.65,0.85,5.1,2,5.1,5.92,0,3.6-2.5,5-6.13,5a11.46,11.46,0,0,1-6.33-1.88l0.72-1.3a1.19,1.19,0,0,1,1.55-.5l0.31,0.15a8.71,8.71,0,0,0,3.76.93c1.57,0,2.57-.77,2.57-2.37s-0.57-2.21-2.94-2.94l-1-.33c-2-.64-4.35-1.85-4.35-5.69,0-3.3,2.88-4.82,6.21-4.82a10.24,10.24,0,0,1,5.36,1.47Z" transform="translate(-138 -1039.94)"/><path d="M324.6,1357a1.8,1.8,0,0,1-2.27,1.14,5.64,5.64,0,0,0-1.75-.32c-1.93,0-2.7,1.78-2.7,4.87s1,4.74,2.7,4.74a6.63,6.63,0,0,0,1.88-.29,1.8,1.8,0,0,1,2.21,1.19l0.11,0.33a7.56,7.56,0,0,1-4.2,1.16c-4.48,0-6.28-3-6.28-7.13s1.8-7.26,6.28-7.26a8,8,0,0,1,4.17,1.13Z" transform="translate(-138 -1039.94)"/><path d="M331.05,1359.06v10.45h-3.32v-20.16h1.51a1.81,1.81,0,0,1,1.81,1.81v5.89a5.74,5.74,0,0,1,4-1.65c2.78,0,4.33,1.47,4.33,4.12v10h-1.51a1.81,1.81,0,0,1-1.81-1.81V1360c0-1.21-.59-2.14-1.73-2.14A5.23,5.23,0,0,0,331.05,1359.06Z" transform="translate(-138 -1039.94)"/><path d="M348.92,1355.41c4.87,0,6.21,3,6.21,7.31s-1.34,7.08-6.21,7.08-6.21-3-6.21-7.08S344.08,1355.41,348.92,1355.41Zm0,12.23c2.32,0,2.73-2,2.73-4.92s-0.41-5.15-2.73-5.15-2.7,2.55-2.7,5.15S346.63,1367.64,348.92,1367.64Z" transform="translate(-138 -1039.94)"/><path d="M363.65,1355.41c4.87,0,6.21,3,6.21,7.31s-1.34,7.08-6.21,7.08-6.21-3-6.21-7.08S358.81,1355.41,363.65,1355.41Zm0,12.23c2.32,0,2.73-2,2.73-4.92s-0.41-5.15-2.73-5.15-2.7,2.55-2.7,5.15S361.36,1367.64,363.65,1367.64Z" transform="translate(-138 -1039.94)"/><path d="M373.15,1349.33h1.51a1.81,1.81,0,0,1,1.81,1.81v14.36c0,0.88.26,1.83,1.39,1.83a5.93,5.93,0,0,0,2-.36l0.11,0.54a1.8,1.8,0,0,1-1.59,2.14c-0.32,0-.65,0-1,0a3.89,3.89,0,0,1-4.2-4.12v-16.25Z" transform="translate(-138 -1039.94)"/><path class="cls-3" d="M265.7,1363.84a8.4,8.4,0,1,1,8.4-8.4,8.42,8.42,0,0,1-8.4,8.4h0Zm0-12.43a4,4,0,1,0,4,4,4,4,0,0,0-4-4h0Z" transform="translate(-138 -1039.94)"/><polygon class="cls-4" points="97.45 345.62 93.08 345.62 93.08 330.51 97.45 330.51 97.45 345.62 97.45 345.62"/><polygon class="cls-4" points="103.79 345.62 99.42 345.62 99.42 330.51 103.79 330.51 103.79 345.62 103.79 345.62"/><polygon class="cls-2" points="117.71 279.25 122.01 274.94 118.89 271.86 114.62 276.16 114.61 276.15 111.49 279.24 111.5 279.25 111.49 279.26 117.03 284.78 112.77 289.05 115.86 292.17 123.26 284.77 117.71 279.25"/><path class="cls-5" d="M206.82,1347l-9.3,16.07h18.57Zm0,8.33,2.05,3.56h-4.15Z" transform="translate(-138 -1039.94)"/><polygon class="cls-6" points="88.17 276.57 85.08 273.45 79.73 278.79 74.39 273.45 71.3 276.57 76.64 281.88 71.3 287.23 74.39 290.35 79.73 285 85.08 290.35 88.17 287.23 82.83 281.88 88.17 276.57"/></svg>