<svg id="_9_slide" data-name="9_slide" xmlns="http://www.w3.org/2000/svg" viewBox="0 0 391 247.04"><defs><style>.cls-1{fill:#ffce21;}.cls-2,.cls-3{fill:none;stroke-linecap:round;stroke-miterlimit:10;stroke-width:4.08px;}.cls-2{stroke:#000;}.cls-3{stroke:#fff;}</style></defs><title>message_icon</title><path class="cls-1" d="M279,80h92a20,20,0,0,1,20,20v0a20,20,0,0,1-20,20H279a0,0,0,0,1,0,0V80A0,0,0,0,1,279,80Z"/><path class="cls-1" d="M150,8454h63a20,20,0,0,1,20,20v0a20,20,0,0,1-20,20H150a0,0,0,0,1,0,0v-40a0,0,0,0,1,0,0Z" transform="translate(233 8614) rotate(180)"/><path class="cls-1" d="M273,160h63a20,20,0,0,1,20,20v0a20,20,0,0,1-20,20H273a0,0,0,0,1,0,0V160A0,0,0,0,1,273,160Z"/><rect class="cls-1" x="75.61" y="80" width="241.39" height="155" rx="15.25" ry="15.25"/><rect class="cls-2" x="86" y="90" width="241.39" height="155" rx="15.25" ry="15.25"/><polyline class="cls-2" points="116 115 206.7 190.5 296 115"/><path class="cls-2" d="M467.61,8533v22a14.19,14.19,0,0,1-14.19,14.19H402" transform="translate(-150 -8334)"/><line class="cls-2" x1="317.61" y1="168" x2="317.61" y2="187"/><line class="cls-2" x1="237" y1="235.22" x2="207" y2="235.22"/><line class="cls-3" x1="199" y1="100" x2="234" y2="100"/><path class="cls-3" d="M246,8471v-26a11,11,0,0,1,11-11h62" transform="translate(-150 -8334)"/><line class="cls-3" x1="96" y1="167" x2="96" y2="153"/><polyline class="cls-3" points="188 159 206 174 241 144"/><circle class="cls-1" cx="45" cy="220" r="20"/><circle class="cls-1" cx="263" cy="20" r="20"/></svg>