<svg id="_9_slide" data-name="9_slide" xmlns="http://www.w3.org/2000/svg" viewBox="0 0 458.34 476.88"><defs><style>.cls-1{fill:#fff;}.cls-2{fill:#ffce21;}.cls-3,.cls-4,.cls-5,.cls-6,.cls-7,.cls-8,.cls-9{fill:none;stroke-linecap:round;stroke-miterlimit:10;}.cls-3,.cls-8{stroke:#000;}.cls-3,.cls-4,.cls-5,.cls-6{stroke-width:4.08px;}.cls-4,.cls-9{stroke:#fff;}.cls-5{stroke:#2b2b2b;}.cls-6,.cls-7{stroke:#ffce23;}.cls-7,.cls-8,.cls-9{stroke-width:4px;}</style></defs><title>spiker</title><circle class="cls-1" cx="153.84" cy="137.5" r="19.5"/><circle class="cls-1" cx="211.84" cy="137.5" r="19.5"/><rect class="cls-2" x="119.34" y="9" width="122" height="68"/><path class="cls-3" d="M965.56,8566h38.95a44.33,44.33,0,0,1,43.17,34.25L1062,8641" transform="translate(-747.66 -8320)"/><path class="cls-3" d="M805.4,8753.89l-26.84-25.22,42.82-128.21A44.33,44.33,0,0,1,864.61,8566h39.86" transform="translate(-747.66 -8320)"/><rect class="cls-2" x="64.54" y="304.28" width="231.5" height="148.4" rx="19.28" ry="19.28"/><line class="cls-4" x1="90.61" y1="443.61" x2="154.67" y2="404.46"/><line class="cls-4" x1="216.61" y1="366.61" x2="279.8" y2="327.99"/><path class="cls-2" d="M1017.83,8789.4H836.46a5.78,5.78,0,0,1-5.78-5.78v-8.1h192.94v8.1A5.78,5.78,0,0,1,1017.83,8789.4Z" transform="translate(-747.66 -8320)"/><path d="M1031.23,8635.16a15.21,15.21,0,0,1,15.2,15.2V8760.2a15.21,15.21,0,0,1-15.2,15.2h-193a15.21,15.21,0,0,1-15.2-15.2V8650.36a15.21,15.21,0,0,1,15.2-15.2h193m0-4.08h-193A19.28,19.28,0,0,0,819,8650.36V8760.2a19.28,19.28,0,0,0,19.28,19.28h193a19.28,19.28,0,0,0,19.28-19.28V8650.36a19.28,19.28,0,0,0-19.28-19.28h0Z" transform="translate(-747.66 -8320)"/><circle class="cls-1" cx="180.5" cy="378.48" r="24.22"/><path d="M935,8685.14a20.14,20.14,0,1,1-20.14,20.14A20.17,20.17,0,0,1,935,8685.14m0-4.08a24.22,24.22,0,1,0,24.22,24.22A24.22,24.22,0,0,0,935,8681.06h0Z" transform="translate(-747.66 -8320)"/><path class="cls-3" d="M958.25,8543.25V8566s-7.48,10.43-23.2,10.43-23.2-10.43-23.2-10.43v-22.71" transform="translate(-747.66 -8320)"/><path d="M994,8406.82V8493a49,49,0,0,1-48.93,48.93H925A49,49,0,0,1,876.08,8493v-86.14H994m4.08-4.08H872V8493a53,53,0,0,0,53,53h20.08a53,53,0,0,0,53-53v-90.22h0Z" transform="translate(-747.66 -8320)"/><path d="M1026.33,8779.48v4a1.7,1.7,0,0,1-1.7,1.7H843.26a1.7,1.7,0,0,1-1.7-1.7v-4h184.78m4.08-4.08H837.48v8.1a5.78,5.78,0,0,0,5.78,5.78h181.37a5.78,5.78,0,0,0,5.78-5.78v-8.1h0Z" transform="translate(-747.66 -8320)"/><path class="cls-3" d="M908,8508.57s8.84,12.24,27,12.24,25.39-12.24,25.39-12.24" transform="translate(-747.66 -8320)"/><ellipse cx="158.64" cy="140.41" rx="8.94" ry="9.98"/><ellipse cx="216.14" cy="140.41" rx="8.94" ry="9.98"/><path class="cls-3" d="M941.62,8481.89a6.51,6.51,0,0,1-13,0" transform="translate(-747.66 -8320)"/><path class="cls-3" d="M872.3,8454.28c-4.57-1.92-11.3-3.13-11.3,6.46,0,14.51,11,15.64,11,15.64" transform="translate(-747.66 -8320)"/><path class="cls-3" d="M997.32,8453.67c4.38-1.44,9.68-1.43,9.68,7.07,0,14.51-8.86,15.64-8.86,15.64" transform="translate(-747.66 -8320)"/><line class="cls-4" x1="152.17" y1="324" x2="189.13" y2="324"/><path class="cls-4" d="M831.85,8683.1v-27.53A11.57,11.57,0,0,1,843.42,8644h36" transform="translate(-747.66 -8320)"/><line class="cls-4" x1="84.19" y1="398.68" x2="84.19" y2="373.75"/><path class="cls-3" d="M1037.58,8735.17V8750a16.63,16.63,0,0,1-16.63,16.63h-17.14" transform="translate(-747.66 -8320)"/><line class="cls-5" x1="289.92" y1="389.5" x2="289.92" y2="403.44"/><line class="cls-3" x1="237.45" y1="446.64" x2="219.09" y2="446.64"/><path class="cls-3" d="M922.84,8705.28A12.13,12.13,0,0,1,935,8693.15" transform="translate(-747.66 -8320)"/><line class="cls-3" x1="269.75" y1="457.67" x2="269.75" y2="467.36"/><line class="cls-3" x1="63.18" y1="467.36" x2="306.3" y2="467.36"/><line class="cls-3" x1="90.38" y1="474.84" x2="194.1" y2="474.84"/><line class="cls-3" x1="226.81" y1="474.84" x2="289.98" y2="474.84"/><line class="cls-3" x1="2.04" y1="408.67" x2="30.91" y2="408.67"/><line class="cls-3" x1="44.05" y1="411.26" x2="58.11" y2="424.29"/><line class="cls-3" x1="203.11" y1="224.44" x2="203.11" y2="240.41"/><path class="cls-3" d="M964.75,8532.2a42.25,42.25,0,0,0,20.63-21.8" transform="translate(-747.66 -8320)"/><line class="cls-3" x1="241.14" y1="118.3" x2="241.14" y2="94.88"/><path class="cls-3" d="M1014.8,8359.33" transform="translate(-747.66 -8320)"/><path class="cls-3" d="M990.52,8388.79" transform="translate(-747.66 -8320)"/><path class="cls-3" d="M1002.66,8416.6" transform="translate(-747.66 -8320)"/><path class="cls-3" d="M1007.79,8399.66" transform="translate(-747.66 -8320)"/><polyline class="cls-6" points="159.65 92.39 133.81 92.39 133.81 114.68"/><line class="cls-6" x1="43.74" y1="392.98" x2="52.67" y2="366.04"/><path class="cls-6" d="M827.41,8608.18s4.08-17.57,16.77-27.31,27.65-7.48,34.45-7.48" transform="translate(-747.66 -8320)"/><line class="cls-3" x1="227.4" y1="253.16" x2="254.4" y2="253.16"/><circle class="cls-1" cx="157.39" cy="139.12" r="3.12"/><circle class="cls-1" cx="215.22" cy="139.12" r="3.12"/><line class="cls-3" x1="339.6" y1="279" x2="310.34" y2="328"/><line class="cls-3" x1="310.34" y1="417" x2="380.34" y2="294.72"/><path class="cls-3" d="M1153.77,8518.92a5.39,5.39,0,0,0-6.16,4.49l-4.17,26.62-6.78-1.06,5.53-35.34a5.39,5.39,0,1,0-10.65-1.67l-5.53,35.34-6.78-1.06,7-45a5.39,5.39,0,1,0-10.65-1.67l-7,45-6.78-1.06,5.53-35.34a5.39,5.39,0,0,0-10.65-1.67l-4.77,30.5-3.14,20.06-15.12-13.39a7,7,0,0,0-9.68,10l22.39,23.67a31.85,31.85,0,0,0,63.25,2.9l5.23-33.4,3.41-21.78A5.39,5.39,0,0,0,1153.77,8518.92Z" transform="translate(-747.66 -8320)"/><path class="cls-3" d="M1093,8607s8.62,6.05,15,8c9,2.75,19,1,19,1" transform="translate(-747.66 -8320)"/><line class="cls-3" x1="329.62" y1="364" x2="321.34" y2="378.24"/><line class="cls-3" x1="363.34" y1="306" x2="336.34" y2="352.44"/><path class="cls-3" d="M1112,8598c10.5,3.25,25-3.5,27.5-16.25" transform="translate(-747.66 -8320)"/><polyline class="cls-6" points="348.34 253 352.34 233 394.34 240"/><line class="cls-6" x1="340.34" y1="295" x2="330.34" y2="312"/><rect class="cls-3" x="126.34" y="16" width="122" height="68"/><rect x="101.34" width="172" height="18"/><circle cx="187.84" cy="277.5" r="12.5"/><path d="M943,8597.5l24.26-11.73a4,4,0,0,1,5.74,3.6v17.86a4,4,0,0,1-5.93,3.5Z" transform="translate(-747.66 -8320)"/><path d="M929,8597.5l-24.26-11.73a4,4,0,0,0-5.74,3.6v17.86a4,4,0,0,0,5.93,3.5Z" transform="translate(-747.66 -8320)"/><circle class="cls-3" cx="157.84" cy="140.5" r="19.5"/><path class="cls-7" d="M918,8460.5a12.5,12.5,0,0,1-12.5,12.5" transform="translate(-747.66 -8320)"/><path class="cls-7" d="M976.5,8460.5A12.5,12.5,0,0,1,964,8473" transform="translate(-747.66 -8320)"/><circle class="cls-3" cx="215.84" cy="140.5" r="19.5"/><path class="cls-3" d="M925,8462s5.83-5,10-5,9,6,9,6" transform="translate(-747.66 -8320)"/><line class="cls-3" x1="138.34" y1="140.5" x2="124.34" y2="134"/><line class="cls-3" x1="236.34" y1="140.5" x2="250.34" y2="134"/><line class="cls-7" x1="186.34" y1="146" x2="186.34" y2="158"/><rect x="270.34" y="12.6" width="3" height="85"/><polygon points="259.06 110.68 271.66 129.76 284.27 110.68 271.66 91.6 259.06 110.68"/><line class="cls-8" x1="292.34" y1="281" x2="303.34" y2="313"/><polyline class="cls-7" points="272.34 101 266.34 110 271.34 118"/><line class="cls-8" x1="145.34" y1="113" x2="170.34" y2="113"/><line class="cls-8" x1="203.34" y1="113" x2="228.34" y2="113"/><polyline class="cls-7" points="108.34 12 108.34 7 169.34 7"/><line class="cls-7" x1="184.34" y1="7" x2="195.34" y2="7"/><line class="cls-9" x1="133.34" y1="31" x2="133.34" y2="64"/><line class="cls-8" x1="241.34" y1="26" x2="200.34" y2="26"/><line class="cls-8" x1="241.34" y1="36" x2="200.34" y2="36"/><line class="cls-8" x1="241.34" y1="46" x2="200.34" y2="46"/><line class="cls-8" x1="241.34" y1="56" x2="200.34" y2="56"/><line class="cls-8" x1="241.34" y1="66" x2="200.34" y2="66"/><line class="cls-8" x1="241.34" y1="76" x2="200.34" y2="76"/><line class="cls-7" x1="157.34" y1="273" x2="157.34" y2="281"/><path class="cls-7" d="M929.5,8599a7.5,7.5,0,0,1,7.5-7.5" transform="translate(-747.66 -8320)"/><line class="cls-7" x1="208.34" y1="278" x2="219.34" y2="273"/><path class="cls-7" d="M1169,8522a252.15,252.15,0,0,1,35,21" transform="translate(-747.66 -8320)"/><path class="cls-7" d="M1050,8508s14.85-1.84,34-2.29" transform="translate(-747.66 -8320)"/><path class="cls-7" d="M1167.21,8534a208.53,208.53,0,0,1,20.79,12.44" transform="translate(-747.66 -8320)"/><path class="cls-7" d="M1062,8518.14c5.36-.43,12.72-0.92,21-1.14" transform="translate(-747.66 -8320)"/><path class="cls-7" d="M1164,8546.41c3.73,1.93,7.09,3.85,10,5.6" transform="translate(-747.66 -8320)"/><path class="cls-7" d="M1071,8529.93c3.29-.15,7-0.28,11-0.33" transform="translate(-747.66 -8320)"/><line class="cls-8" x1="187.34" y1="178" x2="187.34" y2="186"/><line class="cls-8" x1="193.34" y1="177" x2="196.34" y2="186"/><line class="cls-8" x1="199.34" y1="175" x2="205.34" y2="183"/><line class="cls-8" x1="181.34" y1="177" x2="178.34" y2="186"/><line class="cls-8" x1="175.34" y1="175" x2="169.34" y2="183"/></svg>