<svg id="_3_slide" data-name="3_slide" xmlns="http://www.w3.org/2000/svg" viewBox="0 0 190.09 129.96"><defs><style>.cls-1{fill:#ffce1d;}</style></defs><title>summer_school_logo</title><rect class="cls-1" x="13.04" width="157.55" height="129.96"/><rect width="183.63" height="8.48"/><rect x="181.92" y="8.48" width="1.7" height="92.88"/><polygon points="175.45 110.1 182.77 121.18 190.09 110.1 182.77 99.02 175.45 110.1"/><path d="M112,3245.32a1.64,1.64,0,0,1-2.16.72h0a9.4,9.4,0,0,0-4.24-1c-2.53,0-3.88,1-3.88,3.06,0,2.28,1.28,3.06,4.63,4.13,3.67,1.17,7.05,2.74,7.05,8.19,0,5-3.45,6.94-8.47,6.94a15.85,15.85,0,0,1-8.76-2.6l1-1.79a1.64,1.64,0,0,1,2.14-.69l0.43,0.2a12,12,0,0,0,5.2,1.28c2.17,0,3.56-1.07,3.56-3.28s-0.78-3.06-4.06-4.06L103,3256c-2.78-.89-6-2.56-6-7.87,0-4.56,4-6.66,8.58-6.66a14.16,14.16,0,0,1,7.41,2Z" transform="translate(-74 -3208.04)"/><path d="M129.72,3262.56v-14.71h4.59V3267h-1.52a2.39,2.39,0,0,1-2.33-1.85h0a8,8,0,0,1-5.7,2.24c-4.09,0-6.62-1.67-6.62-5.27v-14.24h4.59v13.74a2.34,2.34,0,0,0,2.46,2.6A7.25,7.25,0,0,0,129.72,3262.56Z" transform="translate(-74 -3208.04)"/><path d="M155.57,3252.38V3267h-2.09a2.5,2.5,0,0,1-2.5-2.5v-11.24a2.51,2.51,0,0,0-2.35-2.78,4.77,4.77,0,0,0-3.81,2V3267h-4.59v-19.12h1.39a2.5,2.5,0,0,1,2.42,1.85h0a7.53,7.53,0,0,1,5.7-2.28c2.24,0,4,.85,4.77,2.28a8,8,0,0,1,6.05-2.28c2.53,0,5.77,1,5.77,5.31V3267h-2.09a2.5,2.5,0,0,1-2.5-2.5v-11.24a2.53,2.53,0,0,0-2.39-2.78A4.89,4.89,0,0,0,155.57,3252.38Z" transform="translate(-74 -3208.04)"/><path d="M187.58,3252.38V3267h-2.09a2.5,2.5,0,0,1-2.5-2.5v-11.24a2.51,2.51,0,0,0-2.35-2.78,4.77,4.77,0,0,0-3.81,2V3267h-4.59v-19.12h1.39a2.5,2.5,0,0,1,2.42,1.85h0a7.53,7.53,0,0,1,5.7-2.28c2.24,0,4,.85,4.77,2.28a8,8,0,0,1,6.05-2.28c2.53,0,5.77,1,5.77,5.31V3267h-2.09a2.5,2.5,0,0,1-2.5-2.5v-11.24a2.53,2.53,0,0,0-2.39-2.78A4.89,4.89,0,0,0,187.58,3252.38Z" transform="translate(-74 -3208.04)"/><path d="M219.34,3258.18H207.69V3259c0.18,3.35,1.46,5.09,4.2,5.09a17.31,17.31,0,0,0,3.83-.46,2.5,2.5,0,0,1,3,1.85l0.14,0.6a17.47,17.47,0,0,1-7,1.32c-6.34,0-9-3.63-9-9.79,0-5.88,2.53-10.11,8.94-10.11C217.88,3247.47,219.34,3250.92,219.34,3258.18Zm-11.61-2.74h7.12c0-2.74-.64-4.91-3.24-4.91C208.66,3250.53,207.73,3253.06,207.73,3255.44Z" transform="translate(-74 -3208.04)"/><path d="M223.89,3247.86h1.41a2.5,2.5,0,0,1,2.43,1.91l0.11,0.44c0.78-.85,2.1-2.74,4.66-2.74a7.19,7.19,0,0,1,3.06.57l-0.72,2.85H232.3c-1.46,0-3,1.32-3.81,2.49V3267h-4.59v-19.12Z" transform="translate(-74 -3208.04)"/><path d="M112,3285.2a1.64,1.64,0,0,1-2.16.72h0a9.4,9.4,0,0,0-4.24-1c-2.53,0-3.88,1-3.88,3.06,0,2.28,1.28,3.06,4.63,4.13,3.67,1.17,7.05,2.74,7.05,8.19,0,5-3.45,6.94-8.47,6.94a15.85,15.85,0,0,1-8.76-2.6l1-1.79a1.64,1.64,0,0,1,2.14-.69l0.43,0.2a12,12,0,0,0,5.2,1.28c2.17,0,3.56-1.07,3.56-3.28s-0.78-3.06-4.06-4.06l-1.42-.46c-2.78-.89-6-2.56-6-7.87,0-4.56,4-6.66,8.58-6.66a14.16,14.16,0,0,1,7.41,2Z" transform="translate(-74 -3208.04)"/><path d="M131.37,3289.52a2.49,2.49,0,0,1-3.14,1.58,7.8,7.8,0,0,0-2.43-.44c-2.67,0-3.74,2.46-3.74,6.73s1.35,6.55,3.74,6.55a9.17,9.17,0,0,0,2.6-.4,2.48,2.48,0,0,1,3.06,1.65l0.15,0.46a10.46,10.46,0,0,1-5.8,1.6c-6.2,0-8.69-4.2-8.69-9.86s2.49-10,8.69-10a11.11,11.11,0,0,1,5.77,1.57Z" transform="translate(-74 -3208.04)"/><path d="M140.29,3292.4v14.46H135.7V3279h2.09a2.5,2.5,0,0,1,2.5,2.5v8.14a7.93,7.93,0,0,1,5.59-2.28c3.85,0,6,2,6,5.7v13.82h-2.09a2.5,2.5,0,0,1-2.5-2.5v-10.67c0-1.67-.82-3-2.39-3A7.23,7.23,0,0,0,140.29,3292.4Z" transform="translate(-74 -3208.04)"/><path d="M165,3287.35c6.73,0,8.58,4.2,8.58,10.11s-1.85,9.79-8.58,9.79-8.58-4.13-8.58-9.79S158.31,3287.35,165,3287.35Zm0,16.91c3.2,0,3.77-2.71,3.77-6.8s-0.57-7.12-3.77-7.12-3.74,3.53-3.74,7.12S161.83,3304.26,165,3304.26Z" transform="translate(-74 -3208.04)"/><path d="M185.37,3287.35c6.73,0,8.58,4.2,8.58,10.11s-1.85,9.79-8.58,9.79-8.58-4.13-8.58-9.79S178.68,3287.35,185.37,3287.35Zm0,16.91c3.2,0,3.77-2.71,3.77-6.8s-0.57-7.12-3.77-7.12-3.74,3.53-3.74,7.12S182.2,3304.26,185.37,3304.26Z" transform="translate(-74 -3208.04)"/><path d="M198.51,3278.94h2.09a2.5,2.5,0,0,1,2.5,2.5v19.86c0,1.21.36,2.53,1.92,2.53a8.2,8.2,0,0,0,2.74-.5l0.15,0.75a2.49,2.49,0,0,1-2.19,3c-0.44,0-.9.06-1.41,0.06-2.78,0-5.8-1.53-5.8-5.7v-22.47Z" transform="translate(-74 -3208.04)"/></svg>